<?xml version="1.0" encoding="UTF-8" standalone="no"?>
<!-- Created with Inkscape (http://www.inkscape.org/) -->

<svg
   width="714.69476"
   height="905.33575"
   viewBox="0 0 714.69478 905.33575"
   version="1.1"
   id="svg1"
   xml:space="preserve"
   xmlns:xlink="http://www.w3.org/1999/xlink"
   xmlns="http://www.w3.org/2000/svg"
   xmlns:svg="http://www.w3.org/2000/svg"><defs
     id="defs1" /><g
     id="layer3"
     style="display:none;mix-blend-mode:normal;fill:#ffffff;fill-opacity:1"
     transform="translate(-143.13014,-47.645)"><rect
       style="font-variation-settings:'opsz' 32, 'wght' 600;display:none;fill:#ffffff;fill-opacity:1;stroke:#000000;stroke-width:0;stroke-dasharray:none;stroke-opacity:1"
       id="rect49"
       width="2621.8748"
       height="1000"
       x="143.13013"
       y="0" /><rect
       style="font-variation-settings:'opsz' 32, 'wght' 800;display:none;fill:none;fill-opacity:0.618401;stroke:none;stroke-width:1.13359;stroke-linecap:butt;stroke-linejoin:round;stroke-miterlimit:4.5;stroke-dasharray:none;stroke-opacity:1;paint-order:stroke fill markers"
       id="rect2"
       width="906.86993"
       height="906.86993"
       x="46.565029"
       y="47"
       rx="10.753533"
       ry="9.9480906"
       transform="translate(-3.046875e-6)" /></g><g
     id="layer1"
     style="display:inline"
     transform="translate(-143.13014,-47.645)"><path
       id="path6"
       style="font-variation-settings:'opsz' 32, 'wght' 600;display:inline;fill:#DB7F28;fill-opacity:0;stroke:#DB7F28;stroke-width:87.9632;stroke-linecap:round;stroke-linejoin:round;stroke-dasharray:none;paint-order:stroke fill markers"
       transform="matrix(0.78919167,0,0,0.80243733,500.35252,500.36271)"
       d="M -74.002289,428.806 C -188.17015,360.97979 -293.63716,306.30918 -408.66177,239.89969 l 0.0272,-480.39322 c 94.37252,-54.04829 141.17492,-77.20878 233.98856,-133.81945 m 245.295337,-53.75434 338.329233,187.54453 -1e-5,480.57826 c -94.07437,54.31912 -150.09939,79.05456 -244.18579,133.35349" /><g
       id="g5"><use
         x="0"
         y="0"
         xlink:href="#path7"
         id="use4"
         style="display:inline"
         transform="translate(0.41902011,-755.37095)" /><path
         id="path7"
         style="font-variation-settings:'opsz' 32, 'wght' 600;display:inline;fill:none;fill-opacity:0;stroke:#DB7F28;stroke-width:50;stroke-miterlimit:0;stroke-dasharray:none"
         d="m 542.96143,903.04408 a 50.091427,50.091423 30 0 1 -68.42616,18.33473 50.091427,50.091423 30 0 1 -18.33474,-68.42616 50.091427,50.091423 30 0 1 68.42616,-18.33473 50.091427,50.091423 30 0 1 18.33474,68.42616 z" /></g><g
       id="g14"><rect
         style="font-variation-settings:'opsz' 32, 'wght' 600;fill:#DB7F28;fill-opacity:1;stroke:#DB7F28;stroke-width:1.09949;stroke-linecap:butt;stroke-linejoin:round;stroke-miterlimit:4.5;stroke-dasharray:none;stroke-opacity:1;paint-order:markers fill stroke"
         id="rect11"
         width="300"
         height="102.75375"
         x="806.78595"
         y="710.20972"
         ry="8.7757597"
         transform="matrix(1,0,-0.56187757,0.82722041,0,0)"
         rx="9.4862862" /><use
         x="0"
         y="0"
         xlink:href="#rect11"
         id="use3"
         transform="translate(-28.867601,-130)"
         style="fill:#DB7F28;fill-opacity:1" /><use
         x="0"
         y="0"
         xlink:href="#rect11"
         id="use2"
         transform="translate(-49.999968,-259.28113)"
         style="display:inline;fill:#DB7F28;fill-opacity:1" /></g></g></svg>
