<?xml version="1.0" encoding="UTF-8" standalone="no"?>
<svg
   width="231.59599"
   height="64.01358"
   viewBox="0 0 231.59599 64.01358"
   version="1.1"
   id="svg7"
   sodipodi:docname="logo-wordmark.svg"
   inkscape:version="1.4.4 (dcaf3e7, 2026-05-05)"
   xmlns:inkscape="http://www.inkscape.org/namespaces/inkscape"
   xmlns:sodipodi="http://sodipodi.sourceforge.net/DTD/sodipodi-0.dtd"
   xmlns="http://www.w3.org/2000/svg"
   xmlns:svg="http://www.w3.org/2000/svg"
   xmlns:rdf="http://www.w3.org/1999/02/22-rdf-syntax-ns#"
   xmlns:cc="http://creativecommons.org/ns#"
   xmlns:dc="http://purl.org/dc/elements/1.1/">
  <defs
     id="defs7" />
  <sodipodi:namedview
     id="namedview7"
     pagecolor="#505050"
     bordercolor="#ffffff"
     borderopacity="1"
     inkscape:showpageshadow="0"
     inkscape:pageopacity="0"
     inkscape:pagecheckerboard="1"
     inkscape:deskcolor="#505050"
     inkscape:zoom="2.9683333"
     inkscape:cx="89.781022"
     inkscape:cy="67.209433"
     inkscape:window-width="1920"
     inkscape:window-height="1111"
     inkscape:window-x="-9"
     inkscape:window-y="-9"
     inkscape:window-maximized="1"
     inkscape:current-layer="svg7" />
  <title
     id="title1">FortCRM</title>
  <!-- Merkicoon, geschaald en verticaal gecentreerd op het canvas -->
  <g
     transform="scale(0.070707)"
     id="g6">
    <g
       transform="translate(-143.13014,-47.645)"
       id="g5">
      <path
         fill="none"
         stroke="#1d211c"
         stroke-width="87.9632"
         stroke-linecap="round"
         stroke-linejoin="round"
         transform="matrix(0.78919167,0,0,0.80243733,500.35252,500.36271)"
         d="M -74.002289,428.806 C -188.17015,360.97979 -293.63716,306.30918 -408.66177,239.89969 l 0.0272,-480.39322 c 94.37252,-54.04829 141.17492,-77.20878 233.98856,-133.81945 m 245.295337,-53.75434 338.329233,187.54453 -1e-5,480.57826 c -94.07437,54.31912 -150.09939,79.05456 -244.18579,133.35349"
         id="path1" />
      <path
         fill="none"
         stroke="#1d211c"
         stroke-width="50"
         d="m 542.96143,903.04408 a 50.091427,50.091423 30 0 1 -68.42616,18.33473 50.091427,50.091423 30 0 1 -18.33474,-68.42616 50.091427,50.091423 30 0 1 68.42616,-18.33473 50.091427,50.091423 30 0 1 18.33474,68.42616 z"
         id="path2" />
      <path
         fill="none"
         stroke="#1d211c"
         stroke-width="50"
         transform="translate(0.41902011,-755.37095)"
         d="m 542.96143,903.04408 a 50.091427,50.091423 30 0 1 -68.42616,18.33473 50.091427,50.091423 30 0 1 -18.33474,-68.42616 50.091427,50.091423 30 0 1 68.42616,-18.33473 50.091427,50.091423 30 0 1 18.33474,68.42616 z"
         id="path3" />
      <rect
         fill="#1d211c"
         stroke="#1d211c"
         stroke-width="1.09949"
         stroke-linejoin="round"
         width="300"
         height="102.75375"
         x="806.78595"
         y="710.20972"
         ry="8.7757597"
         rx="9.4862862"
         transform="matrix(1,0,-0.56187757,0.82722041,0,0)"
         id="rect3" />
      <rect
         fill="#1d211c"
         stroke="#1d211c"
         stroke-width="1.09949"
         stroke-linejoin="round"
         width="300"
         height="102.75375"
         x="806.78595"
         y="710.20972"
         ry="8.7757597"
         rx="9.4862862"
         transform="matrix(1,0,-0.56187757,0.82722041,-28.867601,-130)"
         id="rect4" />
      <rect
         fill="#1d211c"
         stroke="#1d211c"
         stroke-width="1.09949"
         stroke-linejoin="round"
         width="300"
         height="102.75375"
         x="806.78595"
         y="710.20972"
         ry="8.7757597"
         rx="9.4862862"
         transform="matrix(1,0,-0.56187757,0.82722041,-49.999968,-259.28113)"
         id="rect5" />
    </g>
  </g>
  <!-- Wordmark: "Fort" bold, "CRM" light, in Space Grotesk -->
  <text
     x="65"
     y="47"
     font-family="'Space Grotesk', sans-serif"
     font-size="42px"
     letter-spacing="-0.5"
     id="text7"><tspan
       font-weight="700"
       fill="#1d211c"
       id="tspan6">Fort</tspan><tspan
       font-weight="300"
       fill="#2c6c4f"
       id="tspan7">CRM</tspan></text>
  <metadata
     id="metadata7">
    <rdf:RDF>
      <cc:Work
         rdf:about="">
        <dc:title>FortCRM</dc:title>
      </cc:Work>
    </rdf:RDF>
  </metadata>
</svg>
