<?xml version="1.0" encoding="UTF-8" standalone="no"?>
<svg
   width="630"
   height="630"
   viewBox="0 0 630 630"
   version="1.1"
   id="svg7"
   sodipodi:docname="banner.svg"
   xml:space="preserve"
   inkscape:version="1.4.4 (dcaf3e7, 2026-05-05)"
   inkscape:export-filename="C:\Users\joost\OneDrive - Jeau.st\FortCRM\Logo\logo linkedin.png"
   inkscape:export-xdpi="60.952381"
   inkscape:export-ydpi="60.952381"
   xmlns:inkscape="http://www.inkscape.org/namespaces/inkscape"
   xmlns:sodipodi="http://sodipodi.sourceforge.net/DTD/sodipodi-0.dtd"
   xmlns:xlink="http://www.w3.org/1999/xlink"
   xmlns="http://www.w3.org/2000/svg"
   xmlns:svg="http://www.w3.org/2000/svg"
   xmlns:rdf="http://www.w3.org/1999/02/22-rdf-syntax-ns#"
   xmlns:cc="http://creativecommons.org/ns#"
   xmlns:dc="http://purl.org/dc/elements/1.1/"><defs
     id="defs7"><pattern
       inkscape:collect="always"
       xlink:href="#pattern9"
       preserveAspectRatio="xMidYMid"
       id="pattern1"
       patternTransform="translate(668.3,422.19923)" /><pattern
       inkscape:collect="always"
       xlink:href="#pattern9"
       preserveAspectRatio="xMidYMid"
       id="pattern11"
       patternTransform="matrix(2,0,0,2,668.3,422.19923)"
       x="0"
       y="0" /><pattern
       patternUnits="userSpaceOnUse"
       width="121.4"
       height="63.601542"
       patternTransform="translate(668.3,422.19923)"
       preserveAspectRatio="xMidYMid"
       id="pattern9"
       inkscape:label="pattern9"><g
         fill="none"
         stroke="#1d211c"
         stroke-opacity="0.12"
         stroke-width="1.4"
         id="g4"
         transform="translate(18.7,-1.1992288)"><polygon
           points="21,42 3,32 3,12 21,2 39,12 39,32 "
           id="polygon1" /><polygon
           points="63,42 45,32 45,12 63,2 81,12 81,32 "
           id="polygon2" /><polygon
           points="0,64 -18,54 -18,34 0,24 18,34 18,54 "
           id="polygon3" /><polygon
           points="84,64 66,54 66,34 84,24 102,34 102,54 "
           id="polygon4" /></g></pattern><pattern
       patternUnits="userSpaceOnUse"
       width="121.4"
       height="63.601542"
       patternTransform="translate(668.3,422.19923)"
       preserveAspectRatio="xMidYMid"
       id="pattern9-9"
       inkscape:label="pattern9"><g
         fill="none"
         stroke="#1d211c"
         stroke-opacity="0.12"
         stroke-width="1.4"
         id="g4-4"
         transform="translate(18.7,-1.1992288)"><polygon
           points="21,42 3,32 3,12 21,2 39,12 39,32 "
           id="polygon1-8" /><polygon
           points="63,42 45,32 45,12 63,2 81,12 81,32 "
           id="polygon2-8" /><polygon
           points="0,64 -18,54 -18,34 0,24 18,34 18,54 "
           id="polygon3-2" /><polygon
           points="84,64 66,54 66,34 84,24 102,34 102,54 "
           id="polygon4-4" /></g></pattern></defs><sodipodi:namedview
     id="namedview7"
     pagecolor="#505050"
     bordercolor="#ffffff"
     borderopacity="1"
     inkscape:showpageshadow="0"
     inkscape:pageopacity="0"
     inkscape:pagecheckerboard="1"
     inkscape:deskcolor="#505050"
     inkscape:zoom="0.51206316"
     inkscape:cx="334.91962"
     inkscape:cy="409.12922"
     inkscape:window-width="1920"
     inkscape:window-height="1111"
     inkscape:window-x="-9"
     inkscape:window-y="-9"
     inkscape:window-maximized="1"
     inkscape:current-layer="svg7" /><title
     id="title1">FortCRM</title><!-- Merkicoon, geschaald en verticaal gecentreerd op het canvas --><rect
     style="font-variation-settings:'opsz' 32, 'wght' 800;display:inline;fill:#f0eee4;fill-opacity:1;stroke-width:0.724569;stroke-linejoin:round;stroke-miterlimit:4.5;paint-order:stroke fill markers"
     id="rect7-5"
     width="630"
     height="630"
     x="0"
     y="0"
     rx="4.9803004"
     ry="8.7757597" /><rect
     style="font-variation-settings:'opsz' 32, 'wght' 800;display:inline;fill:url(#pattern11);stroke-linejoin:round;stroke-miterlimit:4.5;paint-order:stroke fill markers"
     id="rect7"
     width="1200"
     height="630"
     x="0"
     y="0"
     rx="9.4862862"
     ry="8.7757597" /><g
     transform="matrix(0.33050941,0,0,0.33050941,196.89333,92.060611)"
     id="g6"
     style="display:inline"><g
       transform="translate(-143.13014,-47.645)"
       id="g5"><path
         fill="none"
         stroke="#1d211c"
         stroke-width="87.9632"
         stroke-linecap="round"
         stroke-linejoin="round"
         transform="matrix(0.78919167,0,0,0.80243733,500.35252,500.36271)"
         d="M -74.002289,428.806 C -188.17015,360.97979 -293.63716,306.30918 -408.66177,239.89969 l 0.0272,-480.39322 c 94.37252,-54.04829 141.17492,-77.20878 233.98856,-133.81945 m 245.295337,-53.75434 338.329233,187.54453 -1e-5,480.57826 c -94.07437,54.31912 -150.09939,79.05456 -244.18579,133.35349"
         id="path1" /><path
         fill="none"
         stroke="#1d211c"
         stroke-width="50"
         d="m 542.96143,903.04408 a 50.091427,50.091423 30 0 1 -68.42616,18.33473 50.091427,50.091423 30 0 1 -18.33474,-68.42616 50.091427,50.091423 30 0 1 68.42616,-18.33473 50.091427,50.091423 30 0 1 18.33474,68.42616 z"
         id="path2" /><path
         fill="none"
         stroke="#1d211c"
         stroke-width="50"
         transform="translate(0.41902011,-755.37095)"
         d="m 542.96143,903.04408 a 50.091427,50.091423 30 0 1 -68.42616,18.33473 50.091427,50.091423 30 0 1 -18.33474,-68.42616 50.091427,50.091423 30 0 1 68.42616,-18.33473 50.091427,50.091423 30 0 1 18.33474,68.42616 z"
         id="path3" /><rect
         fill="#1d211c"
         stroke="#1d211c"
         stroke-width="1.09949"
         stroke-linejoin="round"
         width="300"
         height="102.75375"
         x="806.78595"
         y="710.20972"
         ry="8.7757597"
         rx="9.4862862"
         transform="matrix(1,0,-0.56187757,0.82722041,0,0)"
         id="rect3" /><rect
         fill="#1d211c"
         stroke="#1d211c"
         stroke-width="1.09949"
         stroke-linejoin="round"
         width="300"
         height="102.75375"
         x="806.78595"
         y="710.20972"
         ry="8.7757597"
         rx="9.4862862"
         transform="matrix(1,0,-0.56187757,0.82722041,-28.867601,-130)"
         id="rect4" /><rect
         fill="#1d211c"
         stroke="#1d211c"
         stroke-width="1.09949"
         stroke-linejoin="round"
         width="300"
         height="102.75375"
         x="806.78595"
         y="710.20972"
         ry="8.7757597"
         rx="9.4862862"
         transform="matrix(1,0,-0.56187757,0.82722041,-49.999968,-259.28113)"
         id="rect5" /></g></g><!-- Wordmark: "Fort" bold, "CRM" light, in Space Grotesk --><text
     x="43.091503"
     y="536.07404"
     font-family="'Space Grotesk', sans-serif"
     font-size="133.24px"
     letter-spacing="-0.5"
     id="text7"
     style="display:inline;stroke-width:3.17238"><tspan
       font-weight="700"
       fill="#1d211c"
       id="tspan6"
       style="stroke-width:3.17238">Fort</tspan><tspan
       font-weight="300"
       fill="#2c6c4f"
       id="tspan7"
       style="stroke-width:3.17238">CRM</tspan></text><metadata
     id="metadata7"><rdf:RDF><cc:Work
         rdf:about=""><dc:title>FortCRM</dc:title></cc:Work></rdf:RDF></metadata><rect
     style="display:inline;fill:url(#pattern1);stroke:none"
     width="121.4"
     height="63.601543"
     x="668.29999"
     y="422.19922"
     id="rect9" /></svg>
